<mxfile host="65bd71144e">
    <diagram id="1KUsvd5Joy5YmirTjjE1" name="第 1 页">
        <mxGraphModel dx="823" dy="712" grid="1" gridSize="10" guides="1" tooltips="1" connect="1" arrows="1" fold="1" page="1" pageScale="1" pageWidth="1169" pageHeight="1654" math="0" shadow="0">
            <root>
                <mxCell id="0"/>
                <mxCell id="1" parent="0"/>
                <mxCell id="6" value="utils" style="shape=folder;fontStyle=1;tabWidth=80;tabHeight=30;tabPosition=left;html=1;boundedLbl=1;fontSize=12;" vertex="1" parent="1">
                    <mxGeometry x="80" y="760" width="160" height="80" as="geometry"/>
                </mxCell>
                <mxCell id="7" value="model" style="shape=folder;fontStyle=1;tabWidth=80;tabHeight=30;tabPosition=left;html=1;boundedLbl=1;fontSize=12;" vertex="1" parent="1">
                    <mxGeometry x="80" y="600" width="160" height="80" as="geometry"/>
                </mxCell>
                <mxCell id="24" style="edgeStyle=orthogonalEdgeStyle;html=1;fontSize=12;endArrow=open;endFill=0;endSize=8;strokeWidth=1;" edge="1" parent="1" source="8" target="12">
                    <mxGeometry relative="1" as="geometry"/>
                </mxCell>
                <mxCell id="8" value="app" style="shape=folder;xSize=90;align=left;spacingLeft=10;align=left;verticalAlign=top;spacingLeft=5;spacingTop=-4;tabWidth=70;tabHeight=20;tabPosition=left;html=1;strokeWidth=1;recursiveResize=0;fontSize=12;" vertex="1" parent="1">
                    <mxGeometry x="80" y="400" width="260" height="120" as="geometry"/>
                </mxCell>
                <mxCell id="9" value="&lt;br&gt;i18n" style="strokeColor=inherit;fillColor=inherit;gradientColor=inherit;shape=folder;spacingLeft=10;tabWidth=40;tabHeight=14;tabPosition=left;fontSize=12;html=1;whiteSpace=wrap;" vertex="1" parent="8">
                    <mxGeometry x="20" y="50" width="100" height="50" as="geometry"/>
                </mxCell>
                <mxCell id="10" value="&lt;br&gt;types" style="strokeColor=inherit;fillColor=inherit;gradientColor=inherit;shape=folder;spacingLeft=10;tabWidth=40;tabHeight=14;tabPosition=left;fontSize=12;html=1;whiteSpace=wrap;" vertex="1" parent="8">
                    <mxGeometry x="140" y="50" width="100" height="50" as="geometry"/>
                </mxCell>
                <mxCell id="12" value="&lt;p style=&quot;margin: 0px ; margin-top: 4px ; margin-left: 10px ; text-align: left&quot;&gt;&lt;b&gt;services&lt;/b&gt;&lt;/p&gt;" style="html=1;shape=mxgraph.sysml.package;xSize=90;align=left;spacingLeft=10;overflow=fill;strokeWidth=1;recursiveResize=0;fontSize=12;" vertex="1" parent="1">
                    <mxGeometry x="80" y="240" width="260" height="120" as="geometry"/>
                </mxCell>
                <mxCell id="13" value="&lt;br&gt;local" style="strokeColor=inherit;fillColor=inherit;gradientColor=inherit;shape=folder;spacingLeft=10;tabWidth=40;tabHeight=14;tabPosition=left;fontSize=12;html=1;whiteSpace=wrap;" vertex="1" parent="12">
                    <mxGeometry x="20" y="50" width="100" height="50" as="geometry"/>
                </mxCell>
                <mxCell id="16" value="web" style="shape=folder;fontStyle=1;tabWidth=80;tabHeight=30;tabPosition=left;html=1;boundedLbl=1;fontSize=12;" vertex="1" parent="1">
                    <mxGeometry x="480" y="80" width="160" height="80" as="geometry"/>
                </mxCell>
                <mxCell id="20" style="edgeStyle=orthogonalEdgeStyle;html=1;fontSize=12;endArrow=open;endFill=0;endSize=8;strokeWidth=1;" edge="1" parent="1" source="17" target="16">
                    <mxGeometry relative="1" as="geometry"/>
                </mxCell>
                <mxCell id="17" value="tray" style="shape=folder;fontStyle=1;tabWidth=80;tabHeight=30;tabPosition=left;html=1;boundedLbl=1;fontSize=12;" vertex="1" parent="1">
                    <mxGeometry x="280" y="80" width="160" height="80" as="geometry"/>
                </mxCell>
                <mxCell id="19" style="edgeStyle=orthogonalEdgeStyle;html=1;fontSize=12;endArrow=open;endFill=0;strokeWidth=1;endSize=8;" edge="1" parent="1" source="18" target="17">
                    <mxGeometry relative="1" as="geometry"/>
                </mxCell>
                <mxCell id="18" value="wails" style="shape=folder;fontStyle=1;tabWidth=80;tabHeight=30;tabPosition=left;html=1;boundedLbl=1;fontSize=12;" vertex="1" parent="1">
                    <mxGeometry x="80" y="80" width="160" height="80" as="geometry"/>
                </mxCell>
                <mxCell id="32" value="" style="endArrow=none;dashed=1;html=1;fontSize=12;endSize=8;strokeWidth=1;" edge="1" parent="1">
                    <mxGeometry width="50" height="50" relative="1" as="geometry">
                        <mxPoint x="40" y="200" as="sourcePoint"/>
                        <mxPoint x="680" y="200" as="targetPoint"/>
                    </mxGeometry>
                </mxCell>
                <mxCell id="33" value="" style="endArrow=none;dashed=1;html=1;fontSize=12;endSize=8;strokeWidth=1;" edge="1" parent="1">
                    <mxGeometry width="50" height="50" relative="1" as="geometry">
                        <mxPoint x="40" y="560" as="sourcePoint"/>
                        <mxPoint x="680" y="560" as="targetPoint"/>
                    </mxGeometry>
                </mxCell>
                <mxCell id="34" value="" style="endArrow=none;dashed=1;html=1;fontSize=12;endSize=8;strokeWidth=1;" edge="1" parent="1">
                    <mxGeometry width="50" height="50" relative="1" as="geometry">
                        <mxPoint x="40" y="720" as="sourcePoint"/>
                        <mxPoint x="680" y="720" as="targetPoint"/>
                    </mxGeometry>
                </mxCell>
            </root>
        </mxGraphModel>
    </diagram>
</mxfile>
